<?xml version="1.0" encoding="UTF-8" standalone="no"?>
<!DOCTYPE svg PUBLIC "-//W3C//DTD SVG 1.1//EN" "http://www.w3.org/Graphics/SVG/1.1/DTD/svg11.dtd">
<svg xmlns="http://www.w3.org/2000/svg" xmlns:xlink="http://www.w3.org/1999/xlink" version="1.1" width="288pt" height="288pt" viewBox="0 0 288 288">
<g enable-background="new">
<g>
<path d="M 241.738 73.164 L 154.312 20.727 C 147.922 17.086 140.086 17.086 133.695 20.727 L 46.262 73.16 C 39.852 77.086 35.961 84.074 36 91.594 L 36 196.312 C 35.961 203.832 39.852 210.828 46.262 214.762 L 69.188 228.453 L 69.316 228.527 C 80.895 234.449 85.324 234.449 90.461 234.449 C 108.539 234.449 119.773 222.75 119.773 203.91 L 119.773 102.375 C 119.797 99.734 117.676 97.578 115.035 97.547 L 102.449 97.547 C 99.809 97.578 97.691 99.734 97.711 102.375 L 97.711 203.91 C 97.805 206.867 96.344 209.656 93.859 211.266 C 90.539 213.289 85.719 212.859 80.281 210.055 L 58.309 196.828 C 58.137 196.715 58.035 196.52 58.039 196.312 L 58.039 93.07 C 58.047 92.832 58.168 92.609 58.371 92.477 L 143.781 40.164 C 143.91 40.098 144.062 40.098 144.191 40.164 L 229.652 92.477 C 229.848 92.617 229.965 92.848 229.961 93.094 L 229.961 196.312 C 229.965 196.527 229.871 196.734 229.707 196.875 L 144.176 247.867 C 144.027 247.918 143.871 247.918 143.723 247.867 L 121.883 234.895 C 120.562 234.031 118.883 233.945 117.477 234.664 L 117.285 234.777 C 111.258 238.348 109.637 239.277 104.047 241.312 C 103.133 241.645 100.992 242.438 100.805 244.559 C 100.621 246.68 102.656 248.188 104.469 249.238 L 133.66 267.164 C 136.773 269.027 140.328 270.016 143.953 270.016 L 144.281 270.016 C 147.816 269.961 151.273 268.977 154.312 267.164 L 241.738 214.781 C 248.145 210.832 252.031 203.836 252 196.312 L 252 91.594 C 252.035 84.078 248.145 77.09 241.738 73.164 Z M 241.738 73.164 " fill="#ffdb6e"/>
<path d="M 173.184 178.902 C 152.207 178.902 147.734 173.043 146.406 163.582 C 146.098 161.254 144.133 159.5 141.785 159.465 L 130.645 159.465 C 128.031 159.52 125.957 161.676 126 164.289 C 126 172.492 128.879 199.262 173.203 199.262 C 186.918 199.262 198.328 196.055 206.184 189.984 C 214.043 183.914 218.25 175.082 218.25 164.559 C 218.25 143.438 204.469 137.656 177.328 133.875 C 149.738 130.039 149.738 128.086 149.738 123.812 C 149.738 120.734 149.738 113.531 169.684 113.531 C 183.875 113.531 191.477 115.324 193.906 124.781 C 194.348 126.938 196.234 128.5 198.438 128.531 L 209.617 128.531 C 210.949 128.52 212.211 127.934 213.082 126.922 C 213.941 125.918 214.367 124.617 214.273 123.301 C 212.828 103.305 198.207 93.16 169.699 93.16 C 143.793 93.16 128.328 104.832 128.328 124.379 C 128.328 145.812 144.355 151.871 168.43 154.379 C 196.555 157.285 196.555 161.527 196.555 165.273 C 196.57 171.113 194.148 178.902 173.184 178.902 Z M 173.184 178.902 " fill="#ffdb6e"/>
</g>
</g>
</svg>
